<?xml version="1.0" standalone="no"?><!DOCTYPE svg PUBLIC "-//W3C//DTD SVG 1.1//EN" "http://www.w3.org/Graphics/SVG/1.1/DTD/svg11.dtd"><svg t="1599744191369"  class="icon" viewBox="0 0 1093 1024" version="1.1" xmlns="http://www.w3.org/2000/svg" p-id="5928" xmlns:xlink="http://www.w3.org/1999/xlink" width="213.4765625" height="200"><defs><style type="text/css"></style></defs><path d="M1023.99974 1024H92.972509A92.972509 92.972509 0 0 1 0 931.027491V139.589238A139.588978 139.588978 0 0 1 139.588978 0.00026h465.383401a139.588978 139.588978 0 0 1 139.849405 139.588978v255.999935h255.739508A93.232937 93.232937 0 0 1 1093.794228 488.82211v465.383401a69.794489 69.794489 0 0 1-69.794488 69.794489z m-744.821785-69.794489h186.205446v-186.205446a23.178021 23.178021 0 0 0-22.657166-23.17802h-140.109832a23.178021 23.178021 0 0 0-23.438448 23.17802v186.205446zM677.110713 140.110093a70.054916 70.054916 0 0 0-70.054916-70.315344h-468.768955a70.315343 70.315343 0 0 0-70.315344 70.315344v795.084233a23.438448 23.438448 0 0 0 23.438448 23.438447H234.384478v-210.425175a46.876896 46.876896 0 0 1 46.616468-46.876895H468.768955a46.876896 46.876896 0 0 1 46.616468 46.876895v210.425175H677.110713z m346.889027 348.712017a23.438448 23.438448 0 0 0-23.438448-23.438448H744.821784v139.588978h162.766998a23.438448 23.438448 0 0 1 0 46.616468H744.821784v93.232937h162.766998a23.178021 23.178021 0 0 1 0 46.356041H744.821784v163.027425h255.739508a23.178021 23.178021 0 0 0 23.438448-23.17802v-442.726236z m-628.410827-93.232937v116.410957a23.438448 23.438448 0 0 1-46.616469 0v-116.410957H232.821914a23.438448 23.438448 0 1 1 0-46.616468h116.15053V232.822175a23.438448 23.438448 0 1 1 46.616469 0v116.15053h116.410957a23.438448 23.438448 0 0 1 0 46.616468z m93.232936-279.177955h92.97251a47.658177 47.658177 0 0 1 46.616468 48.960313v49.741594c0 22.657166-23.438448 23.698875-23.438448 0V165.371531a23.959302 23.959302 0 0 0-23.17802-24.480157h-92.97251c-20.313321 0-21.875885-24.480157 0-24.480156z m-58.335692 26.042719a12.240078 12.240078 0 0 1-11.719224-12.500505 11.719224 11.719224 0 1 1 23.438448 0 12.240078 12.240078 0 0 1-11.719224 12.500505z m0 0" fill="#333333" p-id="5929"></path></svg>