<?xml version="1.0" standalone="no"?><!DOCTYPE svg PUBLIC "-//W3C//DTD SVG 1.1//EN" "http://www.w3.org/Graphics/SVG/1.1/DTD/svg11.dtd"><svg t="1599748954150" class="icon" viewBox="0 0 1024 1024" version="1.1" xmlns="http://www.w3.org/2000/svg" p-id="4150" xmlns:xlink="http://www.w3.org/1999/xlink" width="200" height="200"><defs><style type="text/css"></style></defs><path d="M32 32m256 0l448 0q256 0 256 256l0 448q0 256-256 256l-448 0q-256 0-256-256l0-448q0-256 256-256Z" fill="#D3D3D3" opacity=".15" p-id="4151"></path><path d="M736 1024h-448A288.64 288.64 0 0 1 0 736v-448A288.64 288.64 0 0 1 288 0h448A288.64 288.64 0 0 1 1024 288v448a288.64 288.64 0 0 1-288 288z m-448-960A224 224 0 0 0 64 288v448A224 224 0 0 0 288 960h448a224 224 0 0 0 224-224v-448A224 224 0 0 0 736 64z" fill="#D3D3D3" p-id="4152"></path><path d="M312.32 480h400v64H312.32z" fill="#7E838E" p-id="4153"></path></svg>